<?xml version="1.0" encoding="UTF-8" standalone="no"?>
<!DOCTYPE svg PUBLIC "-//W3C//DTD SVG 1.1//EN" "http://www.w3.org/Graphics/SVG/1.1/DTD/svg11.dtd">
<svg xmlns="http://www.w3.org/2000/svg" version="1.1" viewBox="0.00 0.00 785.00 318.00" width="100px">
<path fill="#f5f5f5" d="
  M 259.68 168.79
  C 259.35 119.56 202.61 93.00 164.60 125.33
  C 151.72 136.29 144.56 151.25 140.90 167.52
  A 0.73 0.73 0.0 0 1 139.47 167.50
  Q 138.46 162.08 139.66 156.72
  Q 146.28 127.22 170.86 112.77
  C 197.20 97.29 231.38 102.62 251.63 125.89
  C 281.10 159.74 264.95 215.50 222.54 229.24
  C 188.54 240.26 154.77 220.65 143.13 187.83
  Q 139.78 178.38 142.69 168.82
  A 0.94 0.94 0.0 0 1 144.51 168.93
  C 146.98 182.31 151.84 195.54 160.99 205.52
  C 175.37 221.20 197.51 228.05 218.31 222.39
  C 242.27 215.87 259.85 194.00 259.68 168.79
  Z"
/>
<path fill="#f5f5f5" d="
  M 342.26 204.81
  A 0.66 0.66 0.0 0 1 341.60 205.47
  L 339.92 205.47
  A 0.66 0.66 0.0 0 1 339.26 204.81
  L 339.26 133.55
  A 0.66 0.66 0.0 0 1 339.92 132.89
  L 341.60 132.89
  A 0.66 0.66 0.0 0 1 342.26 133.55
  L 342.26 204.81
  Z"
/>
<path fill="#070706" d="
  M 297.47 136.80
  L 297.17 161.67
  Q 297.16 162.25 296.58 162.25
  L 295.38 162.25
  Q 294.75 162.25 294.75 161.63
  L 294.75 133.74
  Q 294.75 133.15 295.34 133.11
  C 308.20 132.31 321.32 136.26 325.34 149.45
  C 328.56 160.05 326.77 176.43 315.72 182.57
  A 1.22 1.21 60.9 0 0 315.25 184.23
  L 326.49 204.52
  Q 326.71 204.92 326.33 205.18
  C 324.49 206.43 323.03 205.15 322.22 203.51
  Q 317.60 194.18 312.08 185.34
  Q 311.79 184.88 311.26 185.03
  Q 303.29 187.40 295.00 186.49
  Q 294.18 186.40 294.45 185.63
  L 294.80 184.60
  Q 295.02 183.98 295.67 184.00
  C 306.04 184.23 317.51 181.79 321.69 170.89
  C 328.32 153.62 318.83 133.72 298.03 136.18
  Q 297.47 136.24 297.47 136.80
  Z"
/>
<path fill="#070706" d="
  M 389.44 140.14
  A 0.69 0.69 0.0 0 1 388.54 139.75
  L 386.61 134.99
  A 1.84 1.65 -22.0 0 1 387.70 132.77
  L 387.74 132.75
  A 1.84 1.65 -22.0 0 1 390.06 133.60
  L 391.99 138.36
  A 0.69 0.69 0.0 0 1 391.61 139.26
  L 389.44 140.14
  Z"
/>
<path fill="#070706" d="
  M 406.00 187.75
  Q 405.68 192.89 406.46 204.82
  Q 406.51 205.55 405.78 205.61
  L 403.52 205.78
  Q 402.86 205.83 402.82 205.16
  C 402.01 191.22 401.53 182.32 406.10 170.36
  Q 413.07 152.06 419.76 133.66
  Q 419.97 133.06 420.61 133.05
  L 423.32 132.99
  Q 424.07 132.98 423.80 133.68
  Q 410.32 168.94 407.07 178.81
  Q 406.44 180.72 406.00 187.75
  Z"
/>
<path fill="#070706" d="
  M 454.73 136.54
  L 454.76 204.47
  A 1.10 1.08 73.9 0 1 454.26 205.39
  C 452.69 206.39 452.00 205.48 452.00 203.97
  Q 452.00 170.31 452.00 136.87
  A 0.79 0.79 0.0 0 0 451.23 136.08
  L 436.74 135.71
  Q 435.97 135.69 436.01 134.92
  L 436.06 133.67
  Q 436.09 133.00 436.76 133.00
  L 462.20 133.00
  Q 462.83 133.00 462.93 133.63
  L 463.19 135.38
  Q 463.28 136.00 462.66 136.00
  L 455.27 136.00
  Q 454.73 136.00 454.73 136.54
  Z"
/>
<path fill="#070706" d="
  M 470.5272 135.1629
  A 0.79 0.79 0.0 0 1 469.7455 135.9612
  L 466.1657 135.9987
  A 0.79 0.79 0.0 0 1 465.3675 135.2170
  L 465.3528 133.8171
  A 0.79 0.79 0.0 0 1 466.1345 133.0188
  L 469.7143 132.9813
  A 0.79 0.79 0.0 0 1 470.5125 133.7630
  L 470.5272 135.1629
  Z"
/>
<path fill="#070706" d="
  M 485.75 205.01
  A 0.70 0.70 0.0 0 1 485.05 205.71
  L 483.45 205.71
  A 0.70 0.70 0.0 0 1 482.75 205.01
  L 482.75 133.69
  A 0.70 0.70 0.0 0 1 483.45 132.99
  L 485.05 132.99
  A 0.70 0.70 0.0 0 1 485.75 133.69
  L 485.75 205.01
  Z"
/>
<path fill="#070706" d="
  M 532.00 140.63
  L 532.00 204.75
  A 0.97 0.96 88.1 0 1 531.10 205.72
  Q 529.11 205.87 529.13 204.00
  Q 529.39 168.94 529.28 133.87
  Q 529.28 133.33 529.79 133.13
  C 532.85 131.92 534.31 136.82 535.29 138.83
  A 0.82 0.82 0.0 0 1 534.55 140.00
  L 532.63 140.00
  Q 532.00 140.00 532.00 140.63
  Z"
/>
<path fill="#070706" d="
  M 567.13 140.91
  L 550.94 171.36
  A 0.64 0.63 -45.7 0 1 549.83 171.38
  Q 544.27 161.54 538.66 151.33
  C 538.16 150.42 534.52 143.91 538.16 144.81
  Q 538.68 144.93 538.94 145.40
  L 550.01 165.46
  A 0.34 0.34 0.0 0 0 550.60 165.46
  Q 559.22 150.37 567.04 134.98
  C 567.88 133.33 569.04 132.54 570.81 133.15
  Q 571.25 133.30 571.25 133.76
  L 571.25 204.91
  Q 571.25 205.55 570.61 205.62
  L 569.25 205.76
  A 0.91 0.91 0.0 0 1 568.25 204.85
  L 568.26 141.19
  Q 568.26 138.79 567.13 140.91
  Z"
/>
<path fill="#070706" d="
  M 627.03 138.22
  C 611.08 132.66 596.28 138.28 586.38 152.32
  Q 586.01 152.85 585.47 152.49
  L 584.41 151.78
  Q 583.94 151.47 584.22 150.99
  Q 593.69 134.93 611.51 133.29
  C 650.04 129.74 669.01 180.52 634.52 200.31
  Q 617.47 210.09 598.82 201.32
  Q 598.34 201.09 598.58 200.62
  C 599.00 199.77 599.88 199.47 600.81 199.78
  C 610.54 203.03 623.13 203.94 632.21 198.41
  C 639.68 193.86 645.65 186.96 648.18 178.55
  C 653.18 162.00 643.50 143.95 627.03 138.22
  Z"
/>
<path fill="#070706" d="
  M 194.52 186.76
  L 222.83 168.58
  A 0.64 0.64 0.0 0 0 222.83 167.50
  C 211.31 160.30 199.32 151.98 190.79 141.27
  A 0.57 0.57 0.0 0 1 191.21 140.34
  Q 194.48 140.18 197.10 141.89
  Q 215.41 153.88 233.86 165.76
  A 2.15 2.15 0.0 0 1 234.66 168.45
  C 233.81 170.35 232.27 171.91 230.30 173.03
  Q 215.11 181.66 191.29 197.07
  Q 188.93 198.59 187.32 196.27
  Q 187.05 195.88 187.03 195.41
  Q 186.19 170.50 187.45 145.64
  C 187.60 142.68 190.42 141.49 191.92 144.27
  Q 193.13 146.52 193.19 149.18
  Q 193.61 167.84 194.10 186.54
  A 0.27 0.27 0.0 0 0 194.52 186.76
  Z"
/>
<path fill="#070706" d="
  M 370.75 177.09
  L 370.75 153.22
  A 1.11 1.10 87.1 0 1 371.74 152.12
  L 372.96 151.99
  Q 373.75 151.91 373.75 152.71
  Q 373.75 178.23 373.75 203.74
  C 373.75 205.54 372.84 206.34 371.13 205.56
  Q 370.75 205.38 370.75 204.97
  L 370.75 181.33
  A 0.61 0.61 0.0 0 0 370.14 180.72
  L 344.62 180.75
  Q 344.00 180.75 344.00 180.12
  L 344.00 178.50
  Q 344.00 177.75 344.75 177.75
  L 370.09 177.75
  Q 370.75 177.75 370.75 177.09
  Z"
/>
<path fill="#070706" d="
  M 514.00 177.00
  L 514.00 152.85
  A 0.54 0.53 83.1 0 1 514.40 152.33
  C 516.18 151.86 517.00 152.24 517.00 154.15
  Q 517.00 179.57 517.00 205.05
  A 0.69 0.69 0.0 0 1 516.31 205.74
  L 514.65 205.74
  Q 514.00 205.74 514.00 205.09
  L 514.00 181.49
  A 0.78 0.78 0.0 0 0 513.22 180.71
  Q 500.98 180.75 489.50 180.75
  C 488.22 180.75 486.05 179.66 487.39 178.07
  Q 487.65 177.75 488.06 177.75
  L 513.25 177.75
  Q 514.00 177.75 514.00 177.00
  Z"
/>
</svg>
